<svg width="24" height="24" viewBox="0 0 24 24" fill="none" xmlns="http://www.w3.org/2000/svg">
<path d="M9.12269 4.06134H7.06134C5.92289 4.06134 5 4.98424 5 6.12269V18.4907C5 19.6292 5.92289 20.5521 7.06134 20.5521H17.3681C18.5065 20.5521 19.4294 19.6292 19.4294 18.4907V6.12269C19.4294 4.98424 18.5065 4.06134 17.3681 4.06134H15.3067M9.12269 4.06134C9.12269 5.19979 10.0456 6.12269 11.184 6.12269H13.2454C14.3839 6.12269 15.3067 5.19979 15.3067 4.06134M9.12269 4.06134C9.12269 2.92289 10.0456 2 11.184 2H13.2454C14.3839 2 15.3067 2.92289 15.3067 4.06134M12.2147 11.276H15.3067M12.2147 15.3987H15.3067M9.12269 11.276H9.13299M9.12269 15.3987H9.13299" stroke="#0A4C9A" stroke-width="2.06134" stroke-linecap="round" stroke-linejoin="round"/>
</svg>
