<svg width="36" height="36" viewBox="0 0 36 36" fill="none" xmlns="http://www.w3.org/2000/svg">
<rect width="36" height="36" rx="8" fill="#0A4C9A"/>
<path opacity="0.4" d="M13.8661 9H13.6681C12.004 9 11.172 9 10.5364 9.32698C9.97731 9.6146 9.52277 10.0735 9.23791 10.638C8.91406 11.2798 8.91406 12.1198 8.91406 13.8V14M13.8661 27H13.6681C12.004 27 11.172 27 10.5364 26.673C9.97731 26.3854 9.52277 25.9265 9.23791 25.362C8.91406 24.7202 8.91406 23.8802 8.91406 22.2V22M26.7415 14V13.8C26.7415 12.1198 26.7415 11.2798 26.4177 10.638C26.1328 10.0735 25.6783 9.6146 25.1192 9.32698C24.4836 9 23.6516 9 21.9875 9H21.7895M26.7415 22V22.2C26.7415 23.8802 26.7415 24.7202 26.4177 25.362C26.1328 25.9265 25.6783 26.3854 25.1192 26.673C24.4836 27 23.6516 27 21.9875 27H21.7895" stroke="white" stroke-width="2" stroke-linecap="round" stroke-linejoin="round"/>
<path d="M13.3711 14V15.5M22.2848 14V15.5M16.8375 18.6001C17.6299 18.6001 18.3232 17.9001 18.3232 17.1001V14M20.9975 21.2C19.2147 23 16.3425 23 14.5598 21.2" stroke="white" stroke-width="2" stroke-linecap="round" stroke-linejoin="round"/>
</svg>
