<svg width="32" height="32" viewBox="0 0 32 32" fill="none" xmlns="http://www.w3.org/2000/svg">
<path d="M7.09177 19.3387L5.97791 23.4969L1.90678 23.583C0.690115 21.3263 0 18.7444 0 16.0007C0 13.3476 0.64524 10.8456 1.78897 8.64258H1.78985L5.41429 9.30707L7.00202 12.9098C6.66971 13.8786 6.48859 14.9185 6.48859 16.0007C6.48872 17.1752 6.70146 18.3005 7.09177 19.3387Z" fill="#FBBB00"/>
<path d="M31.7181 13.0098C31.9018 13.9776 31.9976 14.9772 31.9976 15.9987C31.9976 17.1442 31.8772 18.2616 31.6478 19.3394C30.8689 23.007 28.8337 26.2096 26.0145 28.4759L26.0136 28.475L21.4484 28.2421L20.8023 24.2087C22.673 23.1116 24.135 21.3947 24.9051 19.3394H16.3496V13.0098H25.0299H31.7181Z" fill="#518EF8"/>
<path d="M26.0149 28.4762L26.0158 28.4771C23.2739 30.681 19.7908 31.9996 15.9992 31.9996C9.90613 31.9996 4.60865 28.594 1.90625 23.5822L7.09124 19.3379C8.4424 22.944 11.921 25.511 15.9992 25.511C17.7521 25.511 19.3944 25.0371 20.8035 24.2099L26.0149 28.4762Z" fill="#28B446"/>
<path d="M26.2124 3.68344L21.0292 7.92688C19.5708 7.01527 17.8468 6.48865 15.9999 6.48865C11.8294 6.48865 8.28565 9.17343 7.00217 12.9088L1.78994 8.64162H1.78906C4.4519 3.50764 9.81619 0 15.9999 0C19.882 0 23.4415 1.38285 26.2124 3.68344Z" fill="#F14336"/>
</svg>
